<?xml version="1.0" encoding="UTF-8" standalone="no"?><svg xmlns="http://www.w3.org/2000/svg" xmlns:xlink="http://www.w3.org/1999/xlink" contentScriptType="text/ecmascript" fill="#000000" width="164.6" zoomAndPan="magnify" contentStyleType="text/css" viewBox="11.0 16.2 164.6 170.2" height="170.2" preserveAspectRatio="xMidYMid meet" version="1"><g id="change1_1"><path fill="#a7f0ba" d="M48,-74.9C60.7,-66.6,68.4,-50.7,72,-35.1C75.6,-19.6,75.1,-4.4,72.7,10.3C70.4,25.1,66.3,39.4,58,51.8C49.7,64.2,37.4,74.7,22.8,80.2C8.1,85.8,-8.7,86.4,-23.1,81.1C-37.4,75.7,-49.3,64.4,-60.2,52C-71.1,39.7,-81.1,26.4,-85,11.1C-89,-4.2,-87,-21.5,-80,-36.4C-73,-51.3,-61,-63.8,-46.8,-71.4C-32.7,-79,-16.3,-81.7,0.7,-82.7C17.7,-83.8,35.3,-83.1,48,-74.9Z" transform="translate(100 100)"/></g></svg>